<?xml version="1.0" standalone="no"?>
<!DOCTYPE svg PUBLIC "-//W3C//DTD SVG 20010904//EN"
 "http://www.w3.org/TR/2001/REC-SVG-20010904/DTD/svg10.dtd">
<svg version="1.0" xmlns="http://www.w3.org/2000/svg"
 width="454.000000pt" height="454.000000pt" viewBox="0 0 454.000000 454.000000"
 preserveAspectRatio="xMidYMid meet">

<g transform="translate(0.000000,454.000000) scale(0.100000,-0.100000)"
fill="#000000" stroke="none">
<path d="M1897 4414 c-242 -48 -426 -108 -622 -204 -363 -176 -650 -432 -880
-785 -171 -261 -276 -531 -331 -855 -22 -126 -24 -462 -5 -635 34 -304 130
-571 315 -884 112 -190 296 -396 506 -567 276 -225 641 -383 1040 -451 163
-27 555 -25 710 5 667 126 1224 513 1552 1077 101 172 207 462 253 687 46 230
44 628 -6 873 -43 211 -136 453 -251 655 -174 305 -468 605 -773 789 -268 162
-572 270 -850 301 -132 15 -575 11 -658 -6z m673 -49 c359 -48 742 -214 1032
-448 116 -94 306 -288 381 -388 230 -312 378 -688 427 -1082 27 -216 2 -544
-60 -782 -213 -812 -886 -1426 -1735 -1581 -136 -25 -497 -30 -651 -10 -521
68 -1025 347 -1369 757 -161 192 -318 470 -393 701 -255 783 -72 1602 488
2182 192 199 362 326 584 438 210 105 438 181 641 212 123 19 518 20 655 1z"/>
<path d="M2019 4240 c-252 -23 -556 -128 -810 -278 -148 -89 -227 -150 -363
-282 -189 -184 -310 -351 -421 -583 -131 -275 -182 -486 -192 -798 -12 -378
47 -660 207 -979 97 -194 205 -343 375 -519 280 -289 599 -469 987 -555 154
-34 277 -46 474 -46 258 0 480 40 700 125 292 114 495 247 715 472 248 252
389 480 493 793 72 219 96 378 96 645 0 177 -13 301 -47 440 -126 529 -426
959 -878 1255 -179 117 -484 243 -690 284 -149 30 -458 42 -646 26z m671 -83
c175 -42 498 -166 485 -187 -2 -4 -39 -10 -80 -14 -137 -12 -249 -60 -335
-141 -30 -28 -49 -36 -122 -49 -164 -31 -297 -82 -312 -121 -11 -30 24 -27
112 9 120 48 179 59 288 54 83 -5 101 -9 176 -47 92 -45 121 -51 116 -24 -4
22 -93 76 -171 105 l-58 21 28 29 c64 68 219 118 362 118 107 0 164 -24 299
-130 397 -307 672 -791 737 -1294 16 -132 31 -336 23 -336 -3 0 -31 9 -64 20
-114 40 -328 44 -422 10 -19 -7 -49 -10 -70 -6 -20 4 -62 11 -92 16 -30 5
-148 14 -262 19 -309 14 -380 0 -465 -92 -98 -107 -108 -189 -26 -223 29 -13
46 -13 109 -3 l74 13 43 -48 c24 -27 57 -53 77 -60 38 -12 47 -33 49 -107 2
-102 -52 -207 -132 -253 -50 -30 -165 -61 -282 -76 -44 -6 -273 -15 -510 -20
-437 -10 -486 -13 -468 -31 19 -19 249 -31 488 -26 434 9 703 49 810 121 101
66 152 183 141 316 l-6 77 38 11 c21 7 60 23 86 37 26 14 52 25 58 25 6 0 30
-16 54 -35 52 -43 119 -74 158 -75 16 0 72 19 125 41 53 23 117 44 144 47 43
4 47 3 47 -17 0 -12 6 -37 14 -55 20 -48 58 -54 146 -25 39 12 73 20 76 16 17
-16 -97 -348 -140 -409 -15 -21 -16 -19 -16 49 0 79 -6 103 -25 103 -17 0 -25
-23 -25 -75 0 -146 -42 -284 -115 -377 -42 -54 -47 -57 -117 -73 -40 -8 -122
-24 -181 -34 l-108 -18 35 36 c20 20 36 42 36 48 0 28 -25 21 -100 -27 -44
-29 -103 -58 -132 -66 -79 -21 -379 -37 -578 -30 -161 6 -404 36 -530 65 -58
14 -444 51 -530 51 -66 0 -109 -17 -97 -37 3 -5 68 -13 144 -16 186 -9 301
-22 538 -62 415 -70 819 -71 1265 -4 74 12 160 23 190 26 l54 6 -43 -52 c-49
-58 -180 -172 -286 -248 -219 -157 -509 -284 -789 -345 -90 -20 -129 -23 -371
-23 -313 0 -376 9 -598 81 -144 47 -366 153 -492 235 -101 66 -205 152 -325
271 l-105 103 200 10 c167 8 200 13 200 25 0 19 -82 27 -292 29 l-151 1 -32
43 -31 42 223 7 c248 8 288 13 288 32 0 22 -49 26 -309 26 l-246 0 -38 60
c-20 33 -37 62 -37 65 0 3 136 5 303 5 166 0 312 3 325 6 14 4 22 13 20 23 -4
23 -81 28 -405 30 l-271 1 -20 35 c-75 125 -182 538 -182 698 0 35 1 36 46 43
62 9 197 -2 264 -22 94 -27 201 -98 186 -122 -3 -5 -31 -19 -63 -30 -74 -27
-153 -77 -153 -97 0 -23 22 -18 112 25 l83 41 150 -3 c134 -3 155 -5 195 -26
25 -13 67 -32 93 -43 42 -16 48 -17 53 -4 9 23 -11 41 -82 75 -68 32 -157 56
-245 65 -48 5 -64 13 -110 52 -114 98 -274 149 -436 140 l-93 -5 0 103 c0 266
68 547 196 815 259 540 757 928 1384 1075 102 24 113 25 415 21 289 -4 317 -6
415 -29z m700 -2007 c102 -4 215 -14 251 -21 60 -11 78 -10 178 10 129 26 206
23 310 -12 93 -32 103 -49 90 -162 -15 -129 -19 -134 -116 -163 -45 -14 -89
-22 -97 -19 -10 4 -16 18 -16 37 0 20 -9 40 -26 57 -23 23 -31 25 -79 20 -30
-3 -90 -22 -135 -42 -111 -50 -139 -53 -192 -22 -24 14 -52 35 -63 47 -24 27
-67 50 -93 50 -10 0 -38 -14 -62 -31 -33 -24 -60 -34 -117 -41 -40 -6 -80 -7
-88 -4 -9 3 -24 21 -36 40 -29 50 -62 60 -153 46 -117 -18 -134 -5 -96 70 30
58 80 111 125 131 46 21 125 23 415 9z"/>
<path d="M1950 3860 c-29 -18 6 -31 85 -31 83 0 91 2 82 26 -5 12 -23 15 -79
15 -40 0 -80 -5 -88 -10z"/>
<path d="M1470 3832 c0 -19 49 -94 69 -106 5 -4 20 -20 32 -37 l22 -31 -44 2
c-61 4 -69 2 -69 -15 0 -17 30 -35 60 -35 35 0 144 -40 168 -63 31 -29 28 -37
-17 -37 -65 0 -101 -11 -101 -30 0 -21 27 -30 90 -30 66 0 110 -26 139 -83 13
-26 22 -50 19 -52 -2 -3 -30 4 -62 15 -82 29 -146 37 -146 18 0 -23 18 -34 85
-53 70 -20 110 -46 130 -85 17 -32 20 -96 6 -104 -5 -4 -32 8 -60 25 -47 29
-81 33 -81 9 0 -5 19 -24 43 -41 41 -30 87 -91 87 -117 0 -21 -11 -13 -120 85
-134 122 -197 153 -305 154 -129 1 -231 -33 -323 -109 -60 -48 -85 -75 -150
-162 -31 -41 -84 -110 -119 -153 -59 -72 -78 -117 -52 -117 6 0 37 27 69 60
32 33 60 60 63 60 3 0 8 -15 11 -34 7 -37 29 -62 46 -51 5 3 10 41 10 84 0 85
22 142 80 211 l29 35 -5 -85 c-6 -92 6 -130 40 -117 13 5 15 16 10 61 -8 67
25 172 65 209 42 38 151 74 151 49 0 -4 -15 -23 -33 -41 -41 -39 -79 -111 -81
-154 -2 -49 25 -40 54 19 36 73 65 110 115 144 52 36 82 37 152 8 l53 -22 -59
-28 c-32 -15 -75 -46 -95 -68 -59 -66 -41 -113 20 -49 41 44 123 89 161 89 22
0 43 -10 65 -29 l32 -28 -39 -7 c-104 -20 -194 -75 -150 -92 16 -7 26 -4 90
20 41 16 155 22 155 8 0 -4 -44 -18 -97 -31 -208 -49 -343 -120 -413 -218 -22
-31 -65 -106 -96 -167 -75 -147 -116 -211 -172 -268 -72 -75 -23 -81 60 -8 26
22 48 40 50 40 1 0 4 -14 5 -31 3 -34 27 -79 43 -79 6 0 10 37 10 86 0 96 19
184 55 253 l24 46 1 -75 c0 -52 5 -83 16 -98 24 -34 34 -17 34 56 0 89 24 194
55 247 22 38 89 94 100 83 2 -2 -7 -34 -21 -72 -27 -75 -34 -170 -14 -206 17
-31 25 -15 39 79 18 117 75 227 134 257 39 21 44 12 18 -30 -39 -63 -48 -126
-17 -126 6 0 21 21 33 48 23 49 108 141 119 129 4 -4 -7 -33 -25 -64 -44 -80
-154 -309 -202 -420 -163 -382 -298 -983 -325 -1439 l-7 -121 -79 -6 c-76 -5
-111 -18 -94 -34 13 -13 778 -16 811 -3 51 20 11 28 -172 35 l-172 8 -7 45
c-4 24 -4 144 0 266 14 458 115 956 306 1511 55 163 79 215 96 215 20 0 26
-53 23 -188 -4 -110 -2 -127 12 -130 28 -5 44 54 44 165 0 57 2 103 4 103 7 0
31 -35 48 -70 12 -26 17 -64 17 -145 1 -93 -3 -117 -22 -159 -28 -61 -28 -68
0 -64 31 4 66 70 73 138 4 30 9 69 12 85 6 29 7 28 24 -25 28 -87 25 -224 -7
-316 -14 -41 -22 -78 -19 -84 11 -19 42 8 65 57 l23 48 9 -30 c4 -16 11 -83
15 -147 3 -65 10 -118 14 -118 4 0 17 12 29 27 l21 26 33 -32 c19 -18 39 -30
45 -27 16 10 13 42 -5 57 -44 36 -85 154 -129 369 -42 202 -88 304 -189 419
-37 41 -66 78 -66 83 0 26 77 -19 129 -76 47 -50 90 -20 46 32 -13 16 -42 41
-64 57 -49 33 -53 55 -11 55 62 0 133 -51 199 -142 41 -57 71 -74 71 -40 0 31
-58 119 -107 161 l-48 41 54 0 c51 0 57 -2 97 -45 32 -33 48 -60 59 -102 27
-100 30 -108 48 -111 14 -3 17 4 17 41 0 24 -7 66 -15 92 -8 27 -13 50 -12 52
2 1 13 -4 25 -13 40 -28 63 -90 74 -198 13 -133 15 -137 39 -107 10 13 19 35
19 50 0 44 15 55 29 24 28 -60 31 -88 20 -186 -6 -54 -9 -101 -5 -104 10 -10
38 20 54 57 l14 35 17 -25 c25 -39 62 -70 82 -70 26 0 24 22 -5 49 -14 13 -44
67 -67 120 -114 262 -207 391 -321 448 -93 47 -239 51 -390 12 -40 -10 -74
-16 -76 -14 -7 7 72 36 143 52 39 8 76 17 83 19 6 2 12 13 12 25 0 21 -3 21
-61 16 -64 -6 -78 9 -25 28 37 13 110 -8 172 -50 53 -37 84 -44 84 -21 0 19
-63 73 -116 99 -24 11 -44 24 -44 27 0 11 49 30 76 30 35 0 112 -41 157 -84
40 -38 52 -43 62 -26 9 15 -20 58 -64 97 l-36 32 53 1 c61 0 98 -16 161 -71
71 -63 110 -47 51 21 -16 19 -29 38 -30 41 0 3 33 4 74 1 71 -4 146 10 146 28
0 14 -28 18 -180 26 -278 15 -393 2 -514 -57 -65 -33 -138 -84 -175 -123 -14
-14 -28 -26 -33 -26 -4 0 -8 28 -8 63 -1 154 -33 264 -110 380 -51 77 -292
340 -316 345 -8 2 -14 -4 -14 -16z m294 -1106 c-6 -16 -24 -23 -24 -8 0 10 22
33 27 28 2 -2 1 -11 -3 -20z m-57 -150 c-13 -38 -40 -66 -52 -55 -6 7 19 71
43 108 15 23 17 24 20 6 1 -11 -3 -38 -11 -59z m-61 -190 c-22 -82 -36 -101
-64 -92 -28 9 -28 26 5 100 37 84 43 91 61 72 14 -13 13 -22 -2 -80z m-54
-154 c6 -6 -26 -155 -38 -174 -6 -9 -60 10 -73 26 -7 8 -2 33 15 81 14 37 27
72 31 77 5 10 52 2 65 -10z m-84 -218 c26 -7 28 -30 11 -134 l-12 -69 -46 6
c-25 3 -50 9 -55 14 -8 7 12 103 35 167 9 22 26 27 67 16z m-21 -258 c6 -6
-14 -128 -27 -162 -9 -24 -13 -25 -57 -18 -27 3 -52 10 -56 14 -8 7 18 152 31
174 5 8 100 1 109 -8z m-73 -236 c25 -9 26 -12 26 -101 l0 -91 -42 7 c-95 14
-98 15 -98 42 0 14 5 54 12 89 11 63 12 64 44 64 18 0 44 -4 58 -10z m-21
-237 l39 -6 -7 -81 c-4 -45 -9 -84 -12 -88 -6 -11 -33 -10 -94 3 l-52 11 7 81
c4 44 9 84 13 90 3 5 20 6 37 3 17 -4 48 -9 69 -13z m-28 -234 c49 -12 44 3
60 -181 l7 -68 -96 0 -96 0 0 33 c0 17 3 76 7 130 l6 97 34 0 c19 0 54 -5 78
-11z"/>
<path d="M942 3465 c-30 -13 -60 -60 -47 -73 3 -3 21 2 40 11 45 21 69 21 101
0 24 -15 27 -15 54 0 36 22 64 21 101 0 22 -13 31 -15 41 -5 9 9 7 17 -12 37
-34 36 -84 50 -129 35 -26 -8 -44 -9 -64 -1 -36 14 -45 13 -85 -4z"/>
<path d="M3198 3341 c-75 -24 -116 -51 -171 -110 -83 -88 -113 -176 -104 -307
7 -114 44 -191 129 -268 86 -79 146 -101 273 -101 91 0 106 3 165 31 123 58
202 162 231 302 35 170 -63 358 -226 433 -90 42 -208 50 -297 20z m188 -34
c74 -16 148 -61 212 -132 62 -68 76 -114 70 -242 -4 -117 -24 -160 -111 -240
-144 -131 -368 -120 -498 24 -19 21 -46 61 -60 88 -21 43 -24 64 -24 155 0
120 11 151 80 228 49 54 127 100 200 118 64 16 60 16 131 1z"/>
<path d="M3870 2860 c-53 -6 -61 -29 -15 -42 53 -14 153 7 132 29 -11 11 -74
18 -117 13z"/>
<path d="M596 2521 c-4 -5 1 -17 10 -26 13 -12 32 -15 88 -13 63 3 71 5 71 23
0 18 -8 20 -82 23 -45 1 -84 -2 -87 -7z"/>
<path d="M3559 2411 c-41 -20 -58 -46 -42 -62 10 -10 22 -8 53 6 41 18 42 18
77 0 33 -18 36 -18 65 -2 38 22 56 21 92 -2 33 -22 46 -19 46 9 0 43 -99 79
-146 52 -11 -6 -33 -5 -65 3 -42 11 -52 11 -80 -4z"/>
<path d="M2468 2114 c-15 -14 -8 -44 10 -45 159 -7 216 32 67 46 -38 4 -73 4
-77 -1z"/>
<path d="M3406 1733 c-3 -21 -6 -66 -6 -100 0 -117 -36 -223 -101 -303 -31
-37 -36 -55 -18 -66 30 -18 132 135 155 235 16 67 18 224 4 252 -16 29 -27 23
-34 -18z"/>
<path d="M3720 1599 c0 -114 -17 -268 -36 -321 -7 -22 -30 -66 -49 -98 -37
-60 -45 -100 -21 -100 18 0 44 36 83 115 56 112 66 157 66 304 1 142 -4 175
-28 185 -13 4 -15 -10 -15 -85z"/>
<path d="M2173 1635 c-58 -46 -37 -71 31 -39 33 16 36 16 76 -5 l41 -21 29 20
c35 25 50 25 94 -1 32 -19 37 -19 42 -5 14 36 -59 81 -115 72 -43 -8 -61 -8
-121 -1 -38 5 -50 2 -77 -20z"/>
<path d="M646 1581 c-100 -12 -56 -54 52 -49 60 3 67 5 70 24 2 15 -4 23 -20
28 -24 6 -26 6 -102 -3z"/>
<path d="M1533 1324 c-9 -25 16 -34 99 -34 78 0 99 9 78 35 -19 22 -168 21
-177 -1z"/>
<path d="M3121 1184 c-46 -19 -127 -43 -180 -54 -110 -22 -367 -40 -586 -40
-155 0 -225 -7 -225 -21 0 -19 64 -23 348 -21 322 2 390 8 571 57 106 29 196
72 196 95 0 25 -36 21 -124 -16z"/>
<path d="M1530 1101 c0 -17 12 -19 163 -26 216 -9 302 -5 302 15 0 22 -62 28
-277 29 -178 1 -188 0 -188 -18z"/>
<path d="M942 884 c4 -21 22 -23 26 -1 2 10 -3 17 -13 17 -10 0 -15 -6 -13
-16z"/>
<path d="M3411 786 c-9 -10 -9 -16 -1 -21 17 -10 37 12 24 25 -8 8 -15 6 -23
-4z"/>
<path d="M2137 754 c-15 -15 -7 -45 11 -42 9 2 17 12 17 22 0 20 -16 31 -28
20z"/>
<path d="M2563 685 c-3 -9 -2 -19 2 -23 9 -9 671 -9 681 0 4 4 1 14 -6 23 -11
13 -59 15 -342 15 -287 0 -329 -2 -335 -15z"/>
<path d="M1506 553 c-12 -12 -6 -33 9 -33 8 0 15 6 15 14 0 17 -14 28 -24 19z"/>
<path d="M2857 474 c-15 -15 -7 -45 11 -42 9 2 17 12 17 22 0 20 -16 31 -28
20z"/>
<path d="M1748 453 c-10 -2 -18 -10 -18 -18 0 -21 128 -27 487 -23 223 2 326
6 333 14 9 9 8 14 -2 20 -14 9 -770 16 -800 7z"/>
</g>
</svg>
